G04 #@! TF.FileFunction,Copper,L2,Bot,Signal*
%FSLAX46Y46*%
G04 Gerber Fmt 4.6, Leading zero omitted, Abs format (unit mm)*
G04 Created by KiCad (PCBNEW 4.0.7) date 03/25/21 13:56:31*
%MOMM*%
%LPD*%
G01*
G04 APERTURE LIST*
%ADD10C,0.100000*%
%ADD11C,2.000000*%
%ADD12R,1.700000X1.700000*%
%ADD13O,1.700000X1.700000*%
%ADD14C,1.520000*%
%ADD15C,2.700000*%
%ADD16C,0.600000*%
%ADD17C,0.250000*%
%ADD18C,0.500000*%
%ADD19C,0.350000*%
G04 APERTURE END LIST*
D10*
D11*
X64028000Y-83866000D03*
X64028000Y-79366000D03*
X70528000Y-83866000D03*
X70528000Y-79366000D03*
D12*
X61110000Y-34158000D03*
D13*
X61110000Y-36698000D03*
X61110000Y-39238000D03*
X61110000Y-41778000D03*
X61110000Y-44318000D03*
X61110000Y-46858000D03*
X61110000Y-49398000D03*
X61110000Y-51938000D03*
X61110000Y-54478000D03*
X61110000Y-57018000D03*
X61110000Y-59558000D03*
X61110000Y-62098000D03*
X61110000Y-64638000D03*
X61110000Y-67178000D03*
X61110000Y-69718000D03*
X61110000Y-72258000D03*
X61110000Y-74798000D03*
X61110000Y-77338000D03*
X61110000Y-79878000D03*
X61110000Y-82418000D03*
D12*
X76350000Y-34158000D03*
D13*
X76350000Y-36698000D03*
X76350000Y-39238000D03*
X76350000Y-41778000D03*
X76350000Y-44318000D03*
X76350000Y-46858000D03*
X76350000Y-49398000D03*
X76350000Y-51938000D03*
X76350000Y-54478000D03*
X76350000Y-57018000D03*
X76350000Y-59558000D03*
X76350000Y-62098000D03*
X76350000Y-64638000D03*
X76350000Y-67178000D03*
X76350000Y-69718000D03*
X76350000Y-72258000D03*
X76350000Y-74798000D03*
X76350000Y-77338000D03*
X76350000Y-79878000D03*
X76350000Y-82418000D03*
D12*
X72694800Y-33807400D03*
D13*
X70154800Y-33807400D03*
X67614800Y-33807400D03*
X65074800Y-33807400D03*
D14*
X67828000Y-87706000D03*
X70368000Y-87706000D03*
X70368000Y-89706000D03*
X67828000Y-89706000D03*
D15*
X63098000Y-92406000D03*
X75098000Y-92406000D03*
D12*
X72788000Y-48556000D03*
D13*
X72788000Y-51096000D03*
D16*
X67068000Y-52196000D03*
X59978000Y-50666000D03*
X69528000Y-67996000D03*
X67328000Y-62976000D03*
X75148000Y-65906000D03*
X74308000Y-65446000D03*
X75208000Y-63396000D03*
X74098000Y-63216000D03*
X73178000Y-58746000D03*
X77358000Y-55686000D03*
X66547200Y-56425600D03*
X68038000Y-56586000D03*
X69278400Y-57336000D03*
X68798000Y-58776000D03*
X66547200Y-58246400D03*
X58338000Y-78516000D03*
X58228000Y-76136000D03*
X58228000Y-73506000D03*
X58148000Y-70636000D03*
X58258000Y-68116000D03*
X58398000Y-65826000D03*
X58368000Y-63286000D03*
X58258000Y-60616000D03*
X58368000Y-58066000D03*
X58098000Y-55706000D03*
X58138000Y-53076000D03*
X58278000Y-50406000D03*
X58058000Y-47776000D03*
X58118000Y-45706000D03*
X58228000Y-42246000D03*
X58118000Y-40176000D03*
X58278000Y-38226000D03*
X58008000Y-35486000D03*
X58338000Y-32856000D03*
X60128000Y-31966000D03*
X61918000Y-31686000D03*
X63928000Y-31796000D03*
X66498000Y-31796000D03*
X68848000Y-31626000D03*
X71468000Y-31576000D03*
X74208000Y-31626000D03*
X76278000Y-31736000D03*
X78678000Y-31856000D03*
X79718000Y-33526000D03*
X79768000Y-36866000D03*
X66718000Y-49226000D03*
X64148000Y-37276000D03*
X73748000Y-38876000D03*
X74178000Y-42486000D03*
X65648000Y-39826000D03*
X65268000Y-40776000D03*
X65208000Y-67756000D03*
X68398000Y-68116000D03*
X66038000Y-71356000D03*
X66238000Y-72876000D03*
X66248000Y-74696000D03*
X66198000Y-76466000D03*
X67768000Y-91466000D03*
X65878000Y-91246000D03*
X64788000Y-90116000D03*
X63568000Y-89716000D03*
X61828000Y-90126000D03*
X73778000Y-77726000D03*
X72378000Y-78276000D03*
X72238000Y-79656000D03*
X64428000Y-53816000D03*
X60048000Y-53151000D03*
X67668000Y-79346000D03*
X65628000Y-79356000D03*
X74968000Y-36086000D03*
X64428000Y-54716000D03*
X68578000Y-52246000D03*
X68848000Y-63116000D03*
X74598000Y-59236000D03*
X69868000Y-48636000D03*
X59748000Y-47756000D03*
X67828000Y-51916000D03*
X78718000Y-39246000D03*
X78508000Y-84806000D03*
X74218000Y-85696000D03*
X67738000Y-77756000D03*
X67608000Y-75326000D03*
X74808000Y-57306000D03*
D17*
X65108000Y-52196000D02*
X67068000Y-52196000D01*
X63558000Y-50646000D02*
X65108000Y-52196000D01*
X59998000Y-50646000D02*
X63558000Y-50646000D01*
X59978000Y-50666000D02*
X59998000Y-50646000D01*
D18*
X79768000Y-36866000D02*
X79768000Y-37516000D01*
X79738000Y-40616000D02*
X79248000Y-41106000D01*
X79738000Y-37546000D02*
X79738000Y-40616000D01*
X79768000Y-37516000D02*
X79738000Y-37546000D01*
D17*
X67328000Y-62976000D02*
X67328000Y-63276000D01*
X73058000Y-67996000D02*
X69528000Y-67996000D01*
X75148000Y-65906000D02*
X73058000Y-67996000D01*
X74308000Y-64296000D02*
X74308000Y-65446000D01*
X75208000Y-63396000D02*
X74308000Y-64296000D01*
X73158000Y-64156000D02*
X74098000Y-63216000D01*
X68208000Y-64156000D02*
X73158000Y-64156000D01*
X67328000Y-63276000D02*
X68208000Y-64156000D01*
X68798000Y-58776000D02*
X68408000Y-58776000D01*
X58468000Y-60826000D02*
X58258000Y-60616000D01*
X66358000Y-60826000D02*
X58468000Y-60826000D01*
X68408000Y-58776000D02*
X66358000Y-60826000D01*
X66547200Y-58246400D02*
X62527600Y-58246400D01*
X58628000Y-58326000D02*
X58368000Y-58066000D01*
X62448000Y-58326000D02*
X58628000Y-58326000D01*
X62527600Y-58246400D02*
X62448000Y-58326000D01*
X66547200Y-56425600D02*
X63357600Y-56425600D01*
X58738000Y-55706000D02*
X58098000Y-55706000D01*
X58778000Y-55746000D02*
X58738000Y-55706000D01*
X62678000Y-55746000D02*
X58778000Y-55746000D01*
X63357600Y-56425600D02*
X62678000Y-55746000D01*
X73178000Y-58746000D02*
X73178000Y-56746000D01*
X74238000Y-55686000D02*
X77358000Y-55686000D01*
X73178000Y-56746000D02*
X74238000Y-55686000D01*
X66547200Y-56425600D02*
X66707600Y-56586000D01*
X66707600Y-56586000D02*
X68038000Y-56586000D01*
X69278400Y-57336000D02*
X68798000Y-57816400D01*
X68798000Y-57816400D02*
X68798000Y-58776000D01*
X66547200Y-58246400D02*
X66547600Y-58246000D01*
X66547600Y-58246000D02*
X66548000Y-58246000D01*
D19*
X61110000Y-79878000D02*
X59700000Y-79878000D01*
X59700000Y-79878000D02*
X58338000Y-78516000D01*
X58228000Y-76136000D02*
X58228000Y-73506000D01*
X58148000Y-70636000D02*
X58258000Y-70526000D01*
X58258000Y-70526000D02*
X58258000Y-68116000D01*
X58398000Y-65826000D02*
X58368000Y-65796000D01*
X58368000Y-65796000D02*
X58368000Y-63286000D01*
X58368000Y-60506000D02*
X58368000Y-58066000D01*
X58258000Y-60616000D02*
X58368000Y-60506000D01*
X79110000Y-36698000D02*
X76350000Y-36698000D01*
X58098000Y-55706000D02*
X58138000Y-55666000D01*
X58138000Y-55666000D02*
X58138000Y-53076000D01*
X58278000Y-50406000D02*
X58058000Y-50186000D01*
X58058000Y-50186000D02*
X58058000Y-47776000D01*
X58118000Y-45706000D02*
X58228000Y-45596000D01*
X58228000Y-45596000D02*
X58228000Y-42246000D01*
X58118000Y-40176000D02*
X58278000Y-40016000D01*
X58278000Y-40016000D02*
X58278000Y-38226000D01*
X58008000Y-35486000D02*
X58338000Y-35156000D01*
X58338000Y-35156000D02*
X58338000Y-32856000D01*
X60128000Y-31966000D02*
X60408000Y-31686000D01*
X60408000Y-31686000D02*
X61918000Y-31686000D01*
X63928000Y-31796000D02*
X66498000Y-31796000D01*
X68848000Y-31626000D02*
X68898000Y-31576000D01*
X68898000Y-31576000D02*
X71468000Y-31576000D01*
X74208000Y-31626000D02*
X74318000Y-31736000D01*
X74318000Y-31736000D02*
X76278000Y-31736000D01*
X78678000Y-31856000D02*
X79238000Y-32416000D01*
X79238000Y-32416000D02*
X79718000Y-33526000D01*
X79768000Y-36866000D02*
X79110000Y-36698000D01*
D17*
X66198000Y-76466000D02*
X66198000Y-79046000D01*
X66198000Y-79046000D02*
X67118000Y-79966000D01*
X67118000Y-79966000D02*
X67118000Y-81826000D01*
X67118000Y-81826000D02*
X69158000Y-83866000D01*
X69158000Y-83866000D02*
X70528000Y-83866000D01*
X65718000Y-69996000D02*
X65718000Y-71036000D01*
X65718000Y-71036000D02*
X66038000Y-71356000D01*
X66238000Y-72876000D02*
X66248000Y-72886000D01*
X66248000Y-72886000D02*
X66248000Y-74696000D01*
X66198000Y-76466000D02*
X66198000Y-76446000D01*
X70368000Y-89706000D02*
X69528000Y-89706000D01*
X69528000Y-89706000D02*
X67768000Y-91466000D01*
X65878000Y-91246000D02*
X64788000Y-90156000D01*
X64788000Y-90156000D02*
X64788000Y-90116000D01*
X63568000Y-89716000D02*
X63158000Y-90126000D01*
X63158000Y-90126000D02*
X61828000Y-90126000D01*
D18*
X73778000Y-77726000D02*
X73228000Y-78276000D01*
X73228000Y-78276000D02*
X72378000Y-78276000D01*
X72238000Y-79656000D02*
X72238000Y-79676000D01*
D17*
X64428000Y-53816000D02*
X63763000Y-53151000D01*
X63763000Y-53151000D02*
X60048000Y-53151000D01*
X60023000Y-53251000D02*
X60048000Y-53226000D01*
X60048000Y-53226000D02*
X60048000Y-53151000D01*
D18*
X70528000Y-79366000D02*
X67708000Y-79386000D01*
X67708000Y-79386000D02*
X67668000Y-79346000D01*
X65628000Y-79356000D02*
X65608000Y-79336000D01*
X65608000Y-79336000D02*
X64028000Y-79366000D01*
D17*
X64028000Y-79366000D02*
X63618000Y-79366000D01*
X63618000Y-79366000D02*
X62728000Y-78206000D01*
X62728000Y-78206000D02*
X62728000Y-75906000D01*
X62728000Y-75906000D02*
X61620000Y-74798000D01*
X61620000Y-74798000D02*
X61110000Y-74798000D01*
X64536000Y-78858000D02*
X64028000Y-79366000D01*
X74918000Y-35590000D02*
X76350000Y-34158000D01*
X74918000Y-36036000D02*
X74918000Y-35590000D01*
X74968000Y-36086000D02*
X74918000Y-36036000D01*
X64428000Y-54716000D02*
X64458000Y-54686000D01*
X64458000Y-54686000D02*
X65818000Y-54396000D01*
X65818000Y-54396000D02*
X67498000Y-52716000D01*
X67498000Y-52716000D02*
X68108000Y-52716000D01*
X68108000Y-52716000D02*
X68578000Y-52246000D01*
X74218000Y-59616000D02*
X74598000Y-59236000D01*
X72348000Y-59616000D02*
X74218000Y-59616000D01*
X68848000Y-63116000D02*
X72348000Y-59616000D01*
X74598000Y-60866000D02*
X77798000Y-60866000D01*
X74378000Y-48556000D02*
X72788000Y-48556000D01*
X74758000Y-48176000D02*
X74378000Y-48556000D01*
X77388000Y-48176000D02*
X74758000Y-48176000D01*
X78468000Y-49096000D02*
X77388000Y-48176000D01*
X78468000Y-60456000D02*
X78468000Y-49096000D01*
X77798000Y-60866000D02*
X78468000Y-60456000D01*
X74598000Y-60866000D02*
X74598000Y-59236000D01*
X69868000Y-48636000D02*
X70108000Y-48556000D01*
X70108000Y-48556000D02*
X72788000Y-48556000D01*
X60048000Y-48056000D02*
X59748000Y-47756000D01*
X62278000Y-48056000D02*
X60048000Y-48056000D01*
X63838000Y-49616000D02*
X62278000Y-48056000D01*
X63838000Y-49816000D02*
X63838000Y-49616000D01*
X65378000Y-51356000D02*
X63838000Y-49816000D01*
X67598000Y-51356000D02*
X65378000Y-51356000D01*
X67828000Y-51916000D02*
X67598000Y-51356000D01*
D18*
X78010000Y-39238000D02*
X76350000Y-39238000D01*
X78718000Y-39246000D02*
X78010000Y-39238000D01*
X75118000Y-84796000D02*
X78508000Y-84806000D01*
X74218000Y-85696000D02*
X75118000Y-84796000D01*
X67738000Y-77756000D02*
X67608000Y-77626000D01*
X67608000Y-77626000D02*
X67608000Y-75326000D01*
D17*
X74808000Y-57306000D02*
X75108000Y-57606000D01*
X75108000Y-57606000D02*
X75108000Y-58316000D01*
X75108000Y-58316000D02*
X76350000Y-59558000D01*
X76350000Y-59398000D02*
X76350000Y-59558000D01*
G36*
X79598000Y-38953517D02*
X79502634Y-38722714D01*
X79242655Y-38462280D01*
X78902801Y-38321161D01*
X78534813Y-38320840D01*
X78421655Y-38367596D01*
X78019886Y-38363056D01*
X78014938Y-38363982D01*
X78010000Y-38363000D01*
X77534122Y-38363000D01*
X77421880Y-38195017D01*
X77400902Y-38181000D01*
X77725002Y-38181000D01*
X77725002Y-37548000D01*
X77547880Y-37548000D01*
X77686820Y-37340029D01*
X77604726Y-37123000D01*
X76775000Y-37123000D01*
X76775000Y-37548000D01*
X75925000Y-37548000D01*
X75925000Y-37123000D01*
X75500000Y-37123000D01*
X75500000Y-36861935D01*
X75751720Y-36610655D01*
X75891926Y-36273000D01*
X75925000Y-36273000D01*
X75925000Y-35848000D01*
X76775000Y-35848000D01*
X76775000Y-36273000D01*
X77604726Y-36273000D01*
X77686820Y-36055971D01*
X77547880Y-35848000D01*
X77725002Y-35848000D01*
X77725002Y-35346717D01*
X77787038Y-35255924D01*
X77837244Y-35008000D01*
X77837244Y-33308000D01*
X77793663Y-33076389D01*
X77656781Y-32863668D01*
X77447924Y-32720962D01*
X77200000Y-32670756D01*
X75500000Y-32670756D01*
X75268389Y-32714337D01*
X75055668Y-32851219D01*
X74912962Y-33060076D01*
X74862756Y-33308000D01*
X74862756Y-34584584D01*
X74387670Y-35059670D01*
X74225090Y-35302987D01*
X74168000Y-35590000D01*
X74168000Y-35600552D01*
X74043161Y-35901199D01*
X74042840Y-36269187D01*
X74183366Y-36609286D01*
X74443345Y-36869720D01*
X74783199Y-37010839D01*
X74867000Y-37010912D01*
X74867000Y-38073002D01*
X74974998Y-38073002D01*
X74974998Y-38181000D01*
X75299098Y-38181000D01*
X75278120Y-38195017D01*
X74958381Y-38673542D01*
X74846103Y-39238000D01*
X74958381Y-39802458D01*
X75278120Y-40280983D01*
X75617876Y-40508000D01*
X75278120Y-40735017D01*
X74958381Y-41213542D01*
X74846103Y-41778000D01*
X74958381Y-42342458D01*
X75278120Y-42820983D01*
X75617876Y-43048000D01*
X75278120Y-43275017D01*
X74958381Y-43753542D01*
X74846103Y-44318000D01*
X74958381Y-44882458D01*
X75278120Y-45360983D01*
X75617876Y-45588000D01*
X75278120Y-45815017D01*
X74958381Y-46293542D01*
X74846103Y-46858000D01*
X74958381Y-47422458D01*
X74960748Y-47426000D01*
X74758000Y-47426000D01*
X74470987Y-47483090D01*
X74259847Y-47624170D01*
X74231663Y-47474389D01*
X74094781Y-47261668D01*
X73885924Y-47118962D01*
X73638000Y-47068756D01*
X71938000Y-47068756D01*
X71706389Y-47112337D01*
X71493668Y-47249219D01*
X71350962Y-47458076D01*
X71300756Y-47706000D01*
X71300756Y-47806000D01*
X70281200Y-47806000D01*
X70052801Y-47711161D01*
X69684813Y-47710840D01*
X69344714Y-47851366D01*
X69084280Y-48111345D01*
X68943161Y-48451199D01*
X68942840Y-48819187D01*
X69083366Y-49159286D01*
X69343345Y-49419720D01*
X69683199Y-49560839D01*
X70051187Y-49561160D01*
X70391286Y-49420634D01*
X70506121Y-49306000D01*
X71300756Y-49306000D01*
X71300756Y-49406000D01*
X71344337Y-49637611D01*
X71481219Y-49850332D01*
X71690076Y-49993038D01*
X71778950Y-50011035D01*
X71716120Y-50053017D01*
X71396381Y-50531542D01*
X71284103Y-51096000D01*
X71396381Y-51660458D01*
X71716120Y-52138983D01*
X72194645Y-52458722D01*
X72759103Y-52571000D01*
X72816897Y-52571000D01*
X73381355Y-52458722D01*
X73859880Y-52138983D01*
X74179619Y-51660458D01*
X74291897Y-51096000D01*
X74179619Y-50531542D01*
X73859880Y-50053017D01*
X73799714Y-50012815D01*
X73869611Y-49999663D01*
X74082332Y-49862781D01*
X74225038Y-49653924D01*
X74275244Y-49406000D01*
X74275244Y-49306000D01*
X74378000Y-49306000D01*
X74665013Y-49248910D01*
X74908063Y-49086509D01*
X74846103Y-49398000D01*
X74958381Y-49962458D01*
X75278120Y-50440983D01*
X75617876Y-50668000D01*
X75278120Y-50895017D01*
X74958381Y-51373542D01*
X74846103Y-51938000D01*
X74958381Y-52502458D01*
X75278120Y-52980983D01*
X75617876Y-53208000D01*
X75278120Y-53435017D01*
X74958381Y-53913542D01*
X74846103Y-54478000D01*
X74958381Y-55042458D01*
X75278120Y-55520983D01*
X75617876Y-55748000D01*
X75278120Y-55975017D01*
X75003716Y-56385693D01*
X74992801Y-56381161D01*
X74624813Y-56380840D01*
X74284714Y-56521366D01*
X74024280Y-56781345D01*
X73883161Y-57121199D01*
X73882840Y-57489187D01*
X74023366Y-57829286D01*
X74283345Y-58089720D01*
X74358000Y-58120719D01*
X74358000Y-58316000D01*
X74361366Y-58332924D01*
X74074714Y-58451366D01*
X73814280Y-58711345D01*
X73750062Y-58866000D01*
X72348000Y-58866000D01*
X72060987Y-58923090D01*
X71817670Y-59085670D01*
X68712458Y-62190882D01*
X68664813Y-62190840D01*
X68324714Y-62331366D01*
X68064280Y-62591345D01*
X67923161Y-62931199D01*
X67922840Y-63299187D01*
X68063366Y-63639286D01*
X68323345Y-63899720D01*
X68663199Y-64040839D01*
X69031187Y-64041160D01*
X69371286Y-63900634D01*
X69631720Y-63640655D01*
X69772839Y-63300801D01*
X69772882Y-63251778D01*
X72658660Y-60366000D01*
X73848000Y-60366000D01*
X73848000Y-60866000D01*
X73905090Y-61153013D01*
X74067670Y-61396330D01*
X74310987Y-61558910D01*
X74598000Y-61616000D01*
X74941979Y-61616000D01*
X74846103Y-62098000D01*
X74958381Y-62662458D01*
X75278120Y-63140983D01*
X75617876Y-63368000D01*
X75278120Y-63595017D01*
X74958381Y-64073542D01*
X74846103Y-64638000D01*
X74958381Y-65202458D01*
X75278120Y-65680983D01*
X75617876Y-65908000D01*
X75278120Y-66135017D01*
X74958381Y-66613542D01*
X74846103Y-67178000D01*
X74958381Y-67742458D01*
X75278120Y-68220983D01*
X75617876Y-68448000D01*
X75278120Y-68675017D01*
X74958381Y-69153542D01*
X74846103Y-69718000D01*
X74958381Y-70282458D01*
X75278120Y-70760983D01*
X75617876Y-70988000D01*
X75278120Y-71215017D01*
X74958381Y-71693542D01*
X74846103Y-72258000D01*
X74958381Y-72822458D01*
X75278120Y-73300983D01*
X75617876Y-73528000D01*
X75278120Y-73755017D01*
X74958381Y-74233542D01*
X74846103Y-74798000D01*
X74958381Y-75362458D01*
X75278120Y-75840983D01*
X75617876Y-76068000D01*
X75278120Y-76295017D01*
X74958381Y-76773542D01*
X74846103Y-77338000D01*
X74958381Y-77902458D01*
X75278120Y-78380983D01*
X75617876Y-78608000D01*
X75278120Y-78835017D01*
X74958381Y-79313542D01*
X74846103Y-79878000D01*
X74958381Y-80442458D01*
X75278120Y-80920983D01*
X75617876Y-81148000D01*
X75278120Y-81375017D01*
X74958381Y-81853542D01*
X74846103Y-82418000D01*
X74958381Y-82982458D01*
X75278120Y-83460983D01*
X75756645Y-83780722D01*
X76321103Y-83893000D01*
X76378897Y-83893000D01*
X76943355Y-83780722D01*
X77421880Y-83460983D01*
X77741619Y-82982458D01*
X77853897Y-82418000D01*
X77741619Y-81853542D01*
X77421880Y-81375017D01*
X77082124Y-81148000D01*
X77421880Y-80920983D01*
X77741619Y-80442458D01*
X77853897Y-79878000D01*
X77741619Y-79313542D01*
X77421880Y-78835017D01*
X77082124Y-78608000D01*
X77421880Y-78380983D01*
X77741619Y-77902458D01*
X77853897Y-77338000D01*
X77741619Y-76773542D01*
X77421880Y-76295017D01*
X77082124Y-76068000D01*
X77421880Y-75840983D01*
X77741619Y-75362458D01*
X77853897Y-74798000D01*
X77741619Y-74233542D01*
X77421880Y-73755017D01*
X77082124Y-73528000D01*
X77421880Y-73300983D01*
X77741619Y-72822458D01*
X77853897Y-72258000D01*
X77741619Y-71693542D01*
X77421880Y-71215017D01*
X77082124Y-70988000D01*
X77421880Y-70760983D01*
X77741619Y-70282458D01*
X77853897Y-69718000D01*
X77741619Y-69153542D01*
X77421880Y-68675017D01*
X77082124Y-68448000D01*
X77421880Y-68220983D01*
X77741619Y-67742458D01*
X77853897Y-67178000D01*
X77741619Y-66613542D01*
X77421880Y-66135017D01*
X77082124Y-65908000D01*
X77421880Y-65680983D01*
X77741619Y-65202458D01*
X77853897Y-64638000D01*
X77741619Y-64073542D01*
X77421880Y-63595017D01*
X77082124Y-63368000D01*
X77421880Y-63140983D01*
X77741619Y-62662458D01*
X77853897Y-62098000D01*
X77758021Y-61616000D01*
X77798000Y-61616000D01*
X77855886Y-61604486D01*
X77914862Y-61606840D01*
X77998058Y-61576206D01*
X78085013Y-61558910D01*
X78134089Y-61526118D01*
X78189474Y-61505725D01*
X78859473Y-61095725D01*
X78924612Y-61035587D01*
X78998330Y-60986330D01*
X79031120Y-60937256D01*
X79074487Y-60897219D01*
X79111654Y-60816729D01*
X79160910Y-60743013D01*
X79172425Y-60685123D01*
X79197167Y-60631541D01*
X79200703Y-60542957D01*
X79218000Y-60456000D01*
X79218000Y-49096000D01*
X79212089Y-49066282D01*
X79215611Y-49036191D01*
X79183724Y-48923683D01*
X79160910Y-48808987D01*
X79144078Y-48783796D01*
X79135816Y-48754645D01*
X79063297Y-48662899D01*
X78998330Y-48565670D01*
X78973138Y-48548837D01*
X78954350Y-48525068D01*
X77874350Y-47605068D01*
X77772250Y-47548062D01*
X77693052Y-47495144D01*
X77741619Y-47422458D01*
X77853897Y-46858000D01*
X77741619Y-46293542D01*
X77421880Y-45815017D01*
X77082124Y-45588000D01*
X77421880Y-45360983D01*
X77741619Y-44882458D01*
X77853897Y-44318000D01*
X77741619Y-43753542D01*
X77421880Y-43275017D01*
X77082124Y-43048000D01*
X77421880Y-42820983D01*
X77741619Y-42342458D01*
X77853897Y-41778000D01*
X77741619Y-41213542D01*
X77421880Y-40735017D01*
X77082124Y-40508000D01*
X77421880Y-40280983D01*
X77534122Y-40113000D01*
X78005070Y-40113000D01*
X78404784Y-40117517D01*
X78533199Y-40170839D01*
X78901187Y-40171160D01*
X79241286Y-40030634D01*
X79501720Y-39770655D01*
X79598000Y-39538786D01*
X79598000Y-94576000D01*
X57998000Y-94576000D01*
X57998000Y-94111584D01*
X62347010Y-94111584D01*
X62523858Y-94344617D01*
X63309438Y-94416763D01*
X63672142Y-94344617D01*
X63848990Y-94111584D01*
X74347010Y-94111584D01*
X74523858Y-94344617D01*
X75309438Y-94416763D01*
X75672142Y-94344617D01*
X75848990Y-94111584D01*
X75098000Y-93360594D01*
X74347010Y-94111584D01*
X63848990Y-94111584D01*
X63098000Y-93360594D01*
X62347010Y-94111584D01*
X57998000Y-94111584D01*
X57998000Y-92617438D01*
X61087237Y-92617438D01*
X61159383Y-92980142D01*
X61392416Y-93156990D01*
X62143406Y-92406000D01*
X64052594Y-92406000D01*
X64803584Y-93156990D01*
X65036617Y-92980142D01*
X65069926Y-92617438D01*
X73087237Y-92617438D01*
X73159383Y-92980142D01*
X73392416Y-93156990D01*
X74143406Y-92406000D01*
X76052594Y-92406000D01*
X76803584Y-93156990D01*
X77036617Y-92980142D01*
X77108763Y-92194562D01*
X77036617Y-91831858D01*
X76803584Y-91655010D01*
X76052594Y-92406000D01*
X74143406Y-92406000D01*
X73392416Y-91655010D01*
X73159383Y-91831858D01*
X73087237Y-92617438D01*
X65069926Y-92617438D01*
X65108763Y-92194562D01*
X65036617Y-91831858D01*
X64803584Y-91655010D01*
X64052594Y-92406000D01*
X62143406Y-92406000D01*
X61392416Y-91655010D01*
X61159383Y-91831858D01*
X61087237Y-92617438D01*
X57998000Y-92617438D01*
X57998000Y-90700416D01*
X62347010Y-90700416D01*
X63098000Y-91451406D01*
X63848990Y-90700416D01*
X63672142Y-90467383D01*
X62886562Y-90395237D01*
X62523858Y-90467383D01*
X62347010Y-90700416D01*
X57998000Y-90700416D01*
X57998000Y-87980285D01*
X66442760Y-87980285D01*
X66653169Y-88489515D01*
X66869313Y-88706036D01*
X66654539Y-88920436D01*
X66443241Y-89429298D01*
X66442760Y-89980285D01*
X66653169Y-90489515D01*
X67042436Y-90879461D01*
X67551298Y-91090759D01*
X68102285Y-91091240D01*
X68611515Y-90880831D01*
X68666758Y-90825684D01*
X69785717Y-90825684D01*
X69871036Y-91036507D01*
X70418028Y-91125408D01*
X70864964Y-91036507D01*
X70950283Y-90825684D01*
X70825015Y-90700416D01*
X74347010Y-90700416D01*
X75098000Y-91451406D01*
X75848990Y-90700416D01*
X75672142Y-90467383D01*
X74886562Y-90395237D01*
X74523858Y-90467383D01*
X74347010Y-90700416D01*
X70825015Y-90700416D01*
X70368000Y-90243401D01*
X69785717Y-90825684D01*
X68666758Y-90825684D01*
X69001461Y-90491564D01*
X69109241Y-90232000D01*
X69248316Y-90288283D01*
X69830599Y-89706000D01*
X70905401Y-89706000D01*
X71487684Y-90288283D01*
X71698507Y-90202964D01*
X71787408Y-89655972D01*
X71698507Y-89209036D01*
X71487684Y-89123717D01*
X70905401Y-89706000D01*
X69830599Y-89706000D01*
X69248316Y-89123717D01*
X69109235Y-89180002D01*
X69002831Y-88922485D01*
X68786687Y-88705964D01*
X69001461Y-88491564D01*
X69097976Y-88259130D01*
X69193169Y-88489515D01*
X69582436Y-88879461D01*
X70091298Y-89090759D01*
X70290334Y-89090933D01*
X70368000Y-89168599D01*
X70445531Y-89091068D01*
X70642285Y-89091240D01*
X71151515Y-88880831D01*
X71541461Y-88491564D01*
X71752759Y-87982702D01*
X71753240Y-87431715D01*
X71542831Y-86922485D01*
X71153564Y-86532539D01*
X70644702Y-86321241D01*
X70093715Y-86320760D01*
X69584485Y-86531169D01*
X69194539Y-86920436D01*
X69098024Y-87152870D01*
X69002831Y-86922485D01*
X68613564Y-86532539D01*
X68104702Y-86321241D01*
X67553715Y-86320760D01*
X67044485Y-86531169D01*
X66654539Y-86920436D01*
X66443241Y-87429298D01*
X66442760Y-87980285D01*
X57998000Y-87980285D01*
X57998000Y-85879187D01*
X73292840Y-85879187D01*
X73433366Y-86219286D01*
X73693345Y-86479720D01*
X74033199Y-86620839D01*
X74401187Y-86621160D01*
X74741286Y-86480634D01*
X75001720Y-86220655D01*
X75052093Y-86099344D01*
X75479367Y-85672070D01*
X78201001Y-85680098D01*
X78323199Y-85730839D01*
X78691187Y-85731160D01*
X79031286Y-85590634D01*
X79291720Y-85330655D01*
X79432839Y-84990801D01*
X79433160Y-84622813D01*
X79292634Y-84282714D01*
X79032655Y-84022280D01*
X78692801Y-83881161D01*
X78324813Y-83880840D01*
X78205584Y-83930104D01*
X75120581Y-83921004D01*
X75119288Y-83921257D01*
X75118000Y-83921001D01*
X74951920Y-83954036D01*
X74785538Y-83986621D01*
X74784443Y-83987348D01*
X74783152Y-83987605D01*
X74642104Y-84081850D01*
X74501110Y-84175460D01*
X74500377Y-84176549D01*
X74499281Y-84177282D01*
X73814828Y-84861736D01*
X73694714Y-84911366D01*
X73434280Y-85171345D01*
X73293161Y-85511199D01*
X73292840Y-85879187D01*
X57998000Y-85879187D01*
X57998000Y-85224609D01*
X63376498Y-85224609D01*
X63499021Y-85444727D01*
X64143440Y-85526985D01*
X64556979Y-85444727D01*
X64679502Y-85224609D01*
X69876498Y-85224609D01*
X69999021Y-85444727D01*
X70643440Y-85526985D01*
X71056979Y-85444727D01*
X71179502Y-85224609D01*
X70528000Y-84573107D01*
X69876498Y-85224609D01*
X64679502Y-85224609D01*
X64028000Y-84573107D01*
X63376498Y-85224609D01*
X57998000Y-85224609D01*
X57998000Y-83981440D01*
X62367015Y-83981440D01*
X62449273Y-84394979D01*
X62669391Y-84517502D01*
X63320893Y-83866000D01*
X64735107Y-83866000D01*
X65386609Y-84517502D01*
X65606727Y-84394979D01*
X65659513Y-83981440D01*
X68867015Y-83981440D01*
X68949273Y-84394979D01*
X69169391Y-84517502D01*
X69820893Y-83866000D01*
X71235107Y-83866000D01*
X71886609Y-84517502D01*
X72106727Y-84394979D01*
X72188985Y-83750560D01*
X72106727Y-83337021D01*
X71886609Y-83214498D01*
X71235107Y-83866000D01*
X69820893Y-83866000D01*
X69169391Y-83214498D01*
X68949273Y-83337021D01*
X68867015Y-83981440D01*
X65659513Y-83981440D01*
X65688985Y-83750560D01*
X65606727Y-83337021D01*
X65386609Y-83214498D01*
X64735107Y-83866000D01*
X63320893Y-83866000D01*
X62669391Y-83214498D01*
X62449273Y-83337021D01*
X62367015Y-83981440D01*
X57998000Y-83981440D01*
X57998000Y-83060029D01*
X59773180Y-83060029D01*
X60005246Y-83407396D01*
X60467966Y-83754854D01*
X60685000Y-83680581D01*
X60685000Y-82843000D01*
X61535000Y-82843000D01*
X61535000Y-83680581D01*
X61752034Y-83754854D01*
X62214754Y-83407396D01*
X62446820Y-83060029D01*
X62364726Y-82843000D01*
X61535000Y-82843000D01*
X60685000Y-82843000D01*
X59855274Y-82843000D01*
X59773180Y-83060029D01*
X57998000Y-83060029D01*
X57998000Y-82507391D01*
X63376498Y-82507391D01*
X64028000Y-83158893D01*
X64679502Y-82507391D01*
X69876498Y-82507391D01*
X70528000Y-83158893D01*
X71179502Y-82507391D01*
X71056979Y-82287273D01*
X70412560Y-82205015D01*
X69999021Y-82287273D01*
X69876498Y-82507391D01*
X64679502Y-82507391D01*
X64556979Y-82287273D01*
X63912560Y-82205015D01*
X63499021Y-82287273D01*
X63376498Y-82507391D01*
X57998000Y-82507391D01*
X57998000Y-80520029D01*
X59773180Y-80520029D01*
X60005246Y-80867396D01*
X60378935Y-81148000D01*
X60005246Y-81428604D01*
X59773180Y-81775971D01*
X59855274Y-81993000D01*
X60685000Y-81993000D01*
X60685000Y-81155419D01*
X60663321Y-81148000D01*
X60685000Y-81140581D01*
X60685000Y-80303000D01*
X59855274Y-80303000D01*
X59773180Y-80520029D01*
X57998000Y-80520029D01*
X57998000Y-47939187D01*
X58822840Y-47939187D01*
X58963366Y-48279286D01*
X59223345Y-48539720D01*
X59563199Y-48680839D01*
X59659237Y-48680923D01*
X59760987Y-48748910D01*
X59773294Y-48751358D01*
X59718381Y-48833542D01*
X59606103Y-49398000D01*
X59683451Y-49786854D01*
X59454714Y-49881366D01*
X59194280Y-50141345D01*
X59053161Y-50481199D01*
X59052840Y-50849187D01*
X59193366Y-51189286D01*
X59453345Y-51449720D01*
X59684164Y-51545564D01*
X59606103Y-51938000D01*
X59678658Y-52302758D01*
X59524714Y-52366366D01*
X59264280Y-52626345D01*
X59123161Y-52966199D01*
X59122840Y-53334187D01*
X59263366Y-53674286D01*
X59523345Y-53934720D01*
X59699610Y-54007911D01*
X59606103Y-54478000D01*
X59718381Y-55042458D01*
X60038120Y-55520983D01*
X60377876Y-55748000D01*
X60038120Y-55975017D01*
X59718381Y-56453542D01*
X59606103Y-57018000D01*
X59718381Y-57582458D01*
X60038120Y-58060983D01*
X60377876Y-58288000D01*
X60038120Y-58515017D01*
X59718381Y-58993542D01*
X59606103Y-59558000D01*
X59718381Y-60122458D01*
X60038120Y-60600983D01*
X60377876Y-60828000D01*
X60038120Y-61055017D01*
X59718381Y-61533542D01*
X59606103Y-62098000D01*
X59718381Y-62662458D01*
X60038120Y-63140983D01*
X60377876Y-63368000D01*
X60038120Y-63595017D01*
X59718381Y-64073542D01*
X59606103Y-64638000D01*
X59718381Y-65202458D01*
X60038120Y-65680983D01*
X60377876Y-65908000D01*
X60038120Y-66135017D01*
X59718381Y-66613542D01*
X59606103Y-67178000D01*
X59718381Y-67742458D01*
X60038120Y-68220983D01*
X60377876Y-68448000D01*
X60038120Y-68675017D01*
X59718381Y-69153542D01*
X59606103Y-69718000D01*
X59718381Y-70282458D01*
X60038120Y-70760983D01*
X60377876Y-70988000D01*
X60038120Y-71215017D01*
X59718381Y-71693542D01*
X59606103Y-72258000D01*
X59718381Y-72822458D01*
X60038120Y-73300983D01*
X60377876Y-73528000D01*
X60038120Y-73755017D01*
X59718381Y-74233542D01*
X59606103Y-74798000D01*
X59718381Y-75362458D01*
X60038120Y-75840983D01*
X60377876Y-76068000D01*
X60038120Y-76295017D01*
X59718381Y-76773542D01*
X59606103Y-77338000D01*
X59718381Y-77902458D01*
X60038120Y-78380983D01*
X60059098Y-78395000D01*
X59734998Y-78395000D01*
X59734998Y-79028000D01*
X59912120Y-79028000D01*
X59773180Y-79235971D01*
X59855274Y-79453000D01*
X60685000Y-79453000D01*
X60685000Y-79028000D01*
X61535000Y-79028000D01*
X61535000Y-79453000D01*
X61960000Y-79453000D01*
X61960000Y-80303000D01*
X61535000Y-80303000D01*
X61535000Y-81140581D01*
X61556679Y-81148000D01*
X61535000Y-81155419D01*
X61535000Y-81993000D01*
X62364726Y-81993000D01*
X62446820Y-81775971D01*
X62214754Y-81428604D01*
X61980899Y-81253002D01*
X62593000Y-81253002D01*
X62593000Y-80148332D01*
X62649588Y-80285286D01*
X63106309Y-80742805D01*
X63703349Y-80990718D01*
X64349814Y-80991282D01*
X64947286Y-80744412D01*
X65404805Y-80287691D01*
X65412878Y-80268249D01*
X65443199Y-80280839D01*
X65811187Y-80281160D01*
X66151286Y-80140634D01*
X66411720Y-79880655D01*
X66552839Y-79540801D01*
X66553160Y-79172813D01*
X66412634Y-78832714D01*
X66152655Y-78572280D01*
X65812801Y-78431161D01*
X65444813Y-78430840D01*
X65406407Y-78446709D01*
X64949691Y-77989195D01*
X64352651Y-77741282D01*
X63706186Y-77740718D01*
X63478000Y-77835002D01*
X63478000Y-75906000D01*
X63420910Y-75618987D01*
X63347544Y-75509187D01*
X66682840Y-75509187D01*
X66733000Y-75630584D01*
X66733000Y-77626000D01*
X66773770Y-77830965D01*
X66799605Y-77960848D01*
X66857739Y-78047852D01*
X66953366Y-78279286D01*
X67208602Y-78534968D01*
X67144714Y-78561366D01*
X66884280Y-78821345D01*
X66743161Y-79161199D01*
X66742840Y-79529187D01*
X66883366Y-79869286D01*
X67143345Y-80129720D01*
X67483199Y-80270839D01*
X67851187Y-80271160D01*
X67878652Y-80259812D01*
X69135380Y-80250899D01*
X69149588Y-80285286D01*
X69606309Y-80742805D01*
X70203349Y-80990718D01*
X70849814Y-80991282D01*
X71447286Y-80744412D01*
X71904805Y-80287691D01*
X72152718Y-79690651D01*
X72153282Y-79044186D01*
X71906412Y-78446714D01*
X71449691Y-77989195D01*
X70852651Y-77741282D01*
X70206186Y-77740718D01*
X69608714Y-77987588D01*
X69151195Y-78444309D01*
X69127692Y-78500909D01*
X68295165Y-78506814D01*
X68521720Y-78280655D01*
X68662839Y-77940801D01*
X68663160Y-77572813D01*
X68522634Y-77232714D01*
X68483000Y-77193011D01*
X68483000Y-75630827D01*
X68532839Y-75510801D01*
X68533160Y-75142813D01*
X68392634Y-74802714D01*
X68132655Y-74542280D01*
X67792801Y-74401161D01*
X67424813Y-74400840D01*
X67084714Y-74541366D01*
X66824280Y-74801345D01*
X66683161Y-75141199D01*
X66682840Y-75509187D01*
X63347544Y-75509187D01*
X63258330Y-75375670D01*
X62597319Y-74714659D01*
X62501619Y-74233542D01*
X62181880Y-73755017D01*
X61842124Y-73528000D01*
X62181880Y-73300983D01*
X62501619Y-72822458D01*
X62613897Y-72258000D01*
X62501619Y-71693542D01*
X62181880Y-71215017D01*
X61842124Y-70988000D01*
X62181880Y-70760983D01*
X62501619Y-70282458D01*
X62613897Y-69718000D01*
X62501619Y-69153542D01*
X62181880Y-68675017D01*
X61842124Y-68448000D01*
X62181880Y-68220983D01*
X62501619Y-67742458D01*
X62613897Y-67178000D01*
X62501619Y-66613542D01*
X62181880Y-66135017D01*
X61842124Y-65908000D01*
X62181880Y-65680983D01*
X62501619Y-65202458D01*
X62613897Y-64638000D01*
X62501619Y-64073542D01*
X62181880Y-63595017D01*
X61842124Y-63368000D01*
X62181880Y-63140983D01*
X62501619Y-62662458D01*
X62613897Y-62098000D01*
X62501619Y-61533542D01*
X62181880Y-61055017D01*
X61842124Y-60828000D01*
X62181880Y-60600983D01*
X62501619Y-60122458D01*
X62613897Y-59558000D01*
X62501619Y-58993542D01*
X62181880Y-58515017D01*
X61842124Y-58288000D01*
X62181880Y-58060983D01*
X62501619Y-57582458D01*
X62613897Y-57018000D01*
X62501619Y-56453542D01*
X62181880Y-55975017D01*
X61842124Y-55748000D01*
X62181880Y-55520983D01*
X62501619Y-55042458D01*
X62613897Y-54478000D01*
X62501619Y-53913542D01*
X62493239Y-53901000D01*
X63452340Y-53901000D01*
X63502882Y-53951542D01*
X63502840Y-53999187D01*
X63613183Y-54266236D01*
X63503161Y-54531199D01*
X63502840Y-54899187D01*
X63643366Y-55239286D01*
X63903345Y-55499720D01*
X64243199Y-55640839D01*
X64611187Y-55641160D01*
X64951286Y-55500634D01*
X65146134Y-55306127D01*
X65974410Y-55129509D01*
X66037569Y-55102325D01*
X66105013Y-55088910D01*
X66170673Y-55045037D01*
X66243206Y-55013819D01*
X66291157Y-54964532D01*
X66348330Y-54926330D01*
X67808660Y-53466000D01*
X68108000Y-53466000D01*
X68395013Y-53408910D01*
X68638330Y-53246330D01*
X68713542Y-53171118D01*
X68761187Y-53171160D01*
X69101286Y-53030634D01*
X69361720Y-52770655D01*
X69502839Y-52430801D01*
X69503160Y-52062813D01*
X69362634Y-51722714D01*
X69102655Y-51462280D01*
X68762801Y-51321161D01*
X68541013Y-51320968D01*
X68352655Y-51132280D01*
X68309559Y-51114385D01*
X68291765Y-51071061D01*
X68291133Y-51070109D01*
X68290910Y-51068987D01*
X68210234Y-50948248D01*
X68129914Y-50827258D01*
X68128964Y-50826619D01*
X68128330Y-50825670D01*
X68007521Y-50744947D01*
X67887083Y-50663952D01*
X67885965Y-50663726D01*
X67885013Y-50663090D01*
X67742524Y-50634747D01*
X67600243Y-50606003D01*
X67599120Y-50606223D01*
X67598000Y-50606000D01*
X65688660Y-50606000D01*
X64560523Y-49477863D01*
X64530910Y-49328987D01*
X64368330Y-49085670D01*
X62808330Y-47525670D01*
X62565013Y-47363090D01*
X62515391Y-47353220D01*
X62613897Y-46858000D01*
X62501619Y-46293542D01*
X62181880Y-45815017D01*
X61842124Y-45588000D01*
X62181880Y-45360983D01*
X62501619Y-44882458D01*
X62613897Y-44318000D01*
X62501619Y-43753542D01*
X62181880Y-43275017D01*
X61842124Y-43048000D01*
X62181880Y-42820983D01*
X62501619Y-42342458D01*
X62613897Y-41778000D01*
X62501619Y-41213542D01*
X62181880Y-40735017D01*
X61842124Y-40508000D01*
X62181880Y-40280983D01*
X62501619Y-39802458D01*
X62613897Y-39238000D01*
X62501619Y-38673542D01*
X62181880Y-38195017D01*
X61842124Y-37968000D01*
X62181880Y-37740983D01*
X62501619Y-37262458D01*
X62613897Y-36698000D01*
X62501619Y-36133542D01*
X62181880Y-35655017D01*
X62121714Y-35614815D01*
X62191611Y-35601663D01*
X62404332Y-35464781D01*
X62547038Y-35255924D01*
X62597244Y-35008000D01*
X62597244Y-34449434D01*
X63737946Y-34449434D01*
X64085404Y-34912154D01*
X64432771Y-35144220D01*
X64649800Y-35062126D01*
X64649800Y-34232400D01*
X63812219Y-34232400D01*
X63737946Y-34449434D01*
X62597244Y-34449434D01*
X62597244Y-33308000D01*
X62570406Y-33165366D01*
X63737946Y-33165366D01*
X63812219Y-33382400D01*
X64649800Y-33382400D01*
X64649800Y-32552674D01*
X65499800Y-32552674D01*
X65499800Y-33382400D01*
X65924800Y-33382400D01*
X65924800Y-34232400D01*
X65499800Y-34232400D01*
X65499800Y-35062126D01*
X65716829Y-35144220D01*
X65924800Y-35005280D01*
X65924800Y-35182402D01*
X66557800Y-35182402D01*
X66557800Y-34858302D01*
X66571817Y-34879280D01*
X67050342Y-35199019D01*
X67614800Y-35311297D01*
X68179258Y-35199019D01*
X68657783Y-34879280D01*
X68884800Y-34539524D01*
X69111817Y-34879280D01*
X69590342Y-35199019D01*
X70154800Y-35311297D01*
X70719258Y-35199019D01*
X71197783Y-34879280D01*
X71237985Y-34819114D01*
X71251137Y-34889011D01*
X71388019Y-35101732D01*
X71596876Y-35244438D01*
X71844800Y-35294644D01*
X73544800Y-35294644D01*
X73776411Y-35251063D01*
X73989132Y-35114181D01*
X74131838Y-34905324D01*
X74182044Y-34657400D01*
X74182044Y-32957400D01*
X74138463Y-32725789D01*
X74001581Y-32513068D01*
X73792724Y-32370362D01*
X73544800Y-32320156D01*
X71844800Y-32320156D01*
X71613189Y-32363737D01*
X71400468Y-32500619D01*
X71257762Y-32709476D01*
X71239765Y-32798350D01*
X71197783Y-32735520D01*
X70719258Y-32415781D01*
X70154800Y-32303503D01*
X69590342Y-32415781D01*
X69111817Y-32735520D01*
X68884800Y-33075276D01*
X68657783Y-32735520D01*
X68179258Y-32415781D01*
X67614800Y-32303503D01*
X67050342Y-32415781D01*
X66571817Y-32735520D01*
X66557800Y-32756498D01*
X66557800Y-32432398D01*
X65924800Y-32432398D01*
X65924800Y-32609520D01*
X65716829Y-32470580D01*
X65499800Y-32552674D01*
X64649800Y-32552674D01*
X64432771Y-32470580D01*
X64085404Y-32702646D01*
X63737946Y-33165366D01*
X62570406Y-33165366D01*
X62553663Y-33076389D01*
X62416781Y-32863668D01*
X62207924Y-32720962D01*
X61960000Y-32670756D01*
X60260000Y-32670756D01*
X60028389Y-32714337D01*
X59815668Y-32851219D01*
X59672962Y-33060076D01*
X59622756Y-33308000D01*
X59622756Y-35008000D01*
X59666337Y-35239611D01*
X59803219Y-35452332D01*
X60012076Y-35595038D01*
X60100950Y-35613035D01*
X60038120Y-35655017D01*
X59718381Y-36133542D01*
X59606103Y-36698000D01*
X59718381Y-37262458D01*
X60038120Y-37740983D01*
X60377876Y-37968000D01*
X60038120Y-38195017D01*
X59718381Y-38673542D01*
X59606103Y-39238000D01*
X59718381Y-39802458D01*
X60038120Y-40280983D01*
X60377876Y-40508000D01*
X60038120Y-40735017D01*
X59718381Y-41213542D01*
X59606103Y-41778000D01*
X59718381Y-42342458D01*
X60038120Y-42820983D01*
X60377876Y-43048000D01*
X60038120Y-43275017D01*
X59718381Y-43753542D01*
X59606103Y-44318000D01*
X59718381Y-44882458D01*
X60038120Y-45360983D01*
X60377876Y-45588000D01*
X60038120Y-45815017D01*
X59718381Y-46293542D01*
X59611497Y-46830881D01*
X59564813Y-46830840D01*
X59224714Y-46971366D01*
X58964280Y-47231345D01*
X58823161Y-47571199D01*
X58822840Y-47939187D01*
X57998000Y-47939187D01*
X57998000Y-29976000D01*
X79598000Y-29976000D01*
X79598000Y-38953517D01*
X79598000Y-38953517D01*
G37*
X79598000Y-38953517D02*
X79502634Y-38722714D01*
X79242655Y-38462280D01*
X78902801Y-38321161D01*
X78534813Y-38320840D01*
X78421655Y-38367596D01*
X78019886Y-38363056D01*
X78014938Y-38363982D01*
X78010000Y-38363000D01*
X77534122Y-38363000D01*
X77421880Y-38195017D01*
X77400902Y-38181000D01*
X77725002Y-38181000D01*
X77725002Y-37548000D01*
X77547880Y-37548000D01*
X77686820Y-37340029D01*
X77604726Y-37123000D01*
X76775000Y-37123000D01*
X76775000Y-37548000D01*
X75925000Y-37548000D01*
X75925000Y-37123000D01*
X75500000Y-37123000D01*
X75500000Y-36861935D01*
X75751720Y-36610655D01*
X75891926Y-36273000D01*
X75925000Y-36273000D01*
X75925000Y-35848000D01*
X76775000Y-35848000D01*
X76775000Y-36273000D01*
X77604726Y-36273000D01*
X77686820Y-36055971D01*
X77547880Y-35848000D01*
X77725002Y-35848000D01*
X77725002Y-35346717D01*
X77787038Y-35255924D01*
X77837244Y-35008000D01*
X77837244Y-33308000D01*
X77793663Y-33076389D01*
X77656781Y-32863668D01*
X77447924Y-32720962D01*
X77200000Y-32670756D01*
X75500000Y-32670756D01*
X75268389Y-32714337D01*
X75055668Y-32851219D01*
X74912962Y-33060076D01*
X74862756Y-33308000D01*
X74862756Y-34584584D01*
X74387670Y-35059670D01*
X74225090Y-35302987D01*
X74168000Y-35590000D01*
X74168000Y-35600552D01*
X74043161Y-35901199D01*
X74042840Y-36269187D01*
X74183366Y-36609286D01*
X74443345Y-36869720D01*
X74783199Y-37010839D01*
X74867000Y-37010912D01*
X74867000Y-38073002D01*
X74974998Y-38073002D01*
X74974998Y-38181000D01*
X75299098Y-38181000D01*
X75278120Y-38195017D01*
X74958381Y-38673542D01*
X74846103Y-39238000D01*
X74958381Y-39802458D01*
X75278120Y-40280983D01*
X75617876Y-40508000D01*
X75278120Y-40735017D01*
X74958381Y-41213542D01*
X74846103Y-41778000D01*
X74958381Y-42342458D01*
X75278120Y-42820983D01*
X75617876Y-43048000D01*
X75278120Y-43275017D01*
X74958381Y-43753542D01*
X74846103Y-44318000D01*
X74958381Y-44882458D01*
X75278120Y-45360983D01*
X75617876Y-45588000D01*
X75278120Y-45815017D01*
X74958381Y-46293542D01*
X74846103Y-46858000D01*
X74958381Y-47422458D01*
X74960748Y-47426000D01*
X74758000Y-47426000D01*
X74470987Y-47483090D01*
X74259847Y-47624170D01*
X74231663Y-47474389D01*
X74094781Y-47261668D01*
X73885924Y-47118962D01*
X73638000Y-47068756D01*
X71938000Y-47068756D01*
X71706389Y-47112337D01*
X71493668Y-47249219D01*
X71350962Y-47458076D01*
X71300756Y-47706000D01*
X71300756Y-47806000D01*
X70281200Y-47806000D01*
X70052801Y-47711161D01*
X69684813Y-47710840D01*
X69344714Y-47851366D01*
X69084280Y-48111345D01*
X68943161Y-48451199D01*
X68942840Y-48819187D01*
X69083366Y-49159286D01*
X69343345Y-49419720D01*
X69683199Y-49560839D01*
X70051187Y-49561160D01*
X70391286Y-49420634D01*
X70506121Y-49306000D01*
X71300756Y-49306000D01*
X71300756Y-49406000D01*
X71344337Y-49637611D01*
X71481219Y-49850332D01*
X71690076Y-49993038D01*
X71778950Y-50011035D01*
X71716120Y-50053017D01*
X71396381Y-50531542D01*
X71284103Y-51096000D01*
X71396381Y-51660458D01*
X71716120Y-52138983D01*
X72194645Y-52458722D01*
X72759103Y-52571000D01*
X72816897Y-52571000D01*
X73381355Y-52458722D01*
X73859880Y-52138983D01*
X74179619Y-51660458D01*
X74291897Y-51096000D01*
X74179619Y-50531542D01*
X73859880Y-50053017D01*
X73799714Y-50012815D01*
X73869611Y-49999663D01*
X74082332Y-49862781D01*
X74225038Y-49653924D01*
X74275244Y-49406000D01*
X74275244Y-49306000D01*
X74378000Y-49306000D01*
X74665013Y-49248910D01*
X74908063Y-49086509D01*
X74846103Y-49398000D01*
X74958381Y-49962458D01*
X75278120Y-50440983D01*
X75617876Y-50668000D01*
X75278120Y-50895017D01*
X74958381Y-51373542D01*
X74846103Y-51938000D01*
X74958381Y-52502458D01*
X75278120Y-52980983D01*
X75617876Y-53208000D01*
X75278120Y-53435017D01*
X74958381Y-53913542D01*
X74846103Y-54478000D01*
X74958381Y-55042458D01*
X75278120Y-55520983D01*
X75617876Y-55748000D01*
X75278120Y-55975017D01*
X75003716Y-56385693D01*
X74992801Y-56381161D01*
X74624813Y-56380840D01*
X74284714Y-56521366D01*
X74024280Y-56781345D01*
X73883161Y-57121199D01*
X73882840Y-57489187D01*
X74023366Y-57829286D01*
X74283345Y-58089720D01*
X74358000Y-58120719D01*
X74358000Y-58316000D01*
X74361366Y-58332924D01*
X74074714Y-58451366D01*
X73814280Y-58711345D01*
X73750062Y-58866000D01*
X72348000Y-58866000D01*
X72060987Y-58923090D01*
X71817670Y-59085670D01*
X68712458Y-62190882D01*
X68664813Y-62190840D01*
X68324714Y-62331366D01*
X68064280Y-62591345D01*
X67923161Y-62931199D01*
X67922840Y-63299187D01*
X68063366Y-63639286D01*
X68323345Y-63899720D01*
X68663199Y-64040839D01*
X69031187Y-64041160D01*
X69371286Y-63900634D01*
X69631720Y-63640655D01*
X69772839Y-63300801D01*
X69772882Y-63251778D01*
X72658660Y-60366000D01*
X73848000Y-60366000D01*
X73848000Y-60866000D01*
X73905090Y-61153013D01*
X74067670Y-61396330D01*
X74310987Y-61558910D01*
X74598000Y-61616000D01*
X74941979Y-61616000D01*
X74846103Y-62098000D01*
X74958381Y-62662458D01*
X75278120Y-63140983D01*
X75617876Y-63368000D01*
X75278120Y-63595017D01*
X74958381Y-64073542D01*
X74846103Y-64638000D01*
X74958381Y-65202458D01*
X75278120Y-65680983D01*
X75617876Y-65908000D01*
X75278120Y-66135017D01*
X74958381Y-66613542D01*
X74846103Y-67178000D01*
X74958381Y-67742458D01*
X75278120Y-68220983D01*
X75617876Y-68448000D01*
X75278120Y-68675017D01*
X74958381Y-69153542D01*
X74846103Y-69718000D01*
X74958381Y-70282458D01*
X75278120Y-70760983D01*
X75617876Y-70988000D01*
X75278120Y-71215017D01*
X74958381Y-71693542D01*
X74846103Y-72258000D01*
X74958381Y-72822458D01*
X75278120Y-73300983D01*
X75617876Y-73528000D01*
X75278120Y-73755017D01*
X74958381Y-74233542D01*
X74846103Y-74798000D01*
X74958381Y-75362458D01*
X75278120Y-75840983D01*
X75617876Y-76068000D01*
X75278120Y-76295017D01*
X74958381Y-76773542D01*
X74846103Y-77338000D01*
X74958381Y-77902458D01*
X75278120Y-78380983D01*
X75617876Y-78608000D01*
X75278120Y-78835017D01*
X74958381Y-79313542D01*
X74846103Y-79878000D01*
X74958381Y-80442458D01*
X75278120Y-80920983D01*
X75617876Y-81148000D01*
X75278120Y-81375017D01*
X74958381Y-81853542D01*
X74846103Y-82418000D01*
X74958381Y-82982458D01*
X75278120Y-83460983D01*
X75756645Y-83780722D01*
X76321103Y-83893000D01*
X76378897Y-83893000D01*
X76943355Y-83780722D01*
X77421880Y-83460983D01*
X77741619Y-82982458D01*
X77853897Y-82418000D01*
X77741619Y-81853542D01*
X77421880Y-81375017D01*
X77082124Y-81148000D01*
X77421880Y-80920983D01*
X77741619Y-80442458D01*
X77853897Y-79878000D01*
X77741619Y-79313542D01*
X77421880Y-78835017D01*
X77082124Y-78608000D01*
X77421880Y-78380983D01*
X77741619Y-77902458D01*
X77853897Y-77338000D01*
X77741619Y-76773542D01*
X77421880Y-76295017D01*
X77082124Y-76068000D01*
X77421880Y-75840983D01*
X77741619Y-75362458D01*
X77853897Y-74798000D01*
X77741619Y-74233542D01*
X77421880Y-73755017D01*
X77082124Y-73528000D01*
X77421880Y-73300983D01*
X77741619Y-72822458D01*
X77853897Y-72258000D01*
X77741619Y-71693542D01*
X77421880Y-71215017D01*
X77082124Y-70988000D01*
X77421880Y-70760983D01*
X77741619Y-70282458D01*
X77853897Y-69718000D01*
X77741619Y-69153542D01*
X77421880Y-68675017D01*
X77082124Y-68448000D01*
X77421880Y-68220983D01*
X77741619Y-67742458D01*
X77853897Y-67178000D01*
X77741619Y-66613542D01*
X77421880Y-66135017D01*
X77082124Y-65908000D01*
X77421880Y-65680983D01*
X77741619Y-65202458D01*
X77853897Y-64638000D01*
X77741619Y-64073542D01*
X77421880Y-63595017D01*
X77082124Y-63368000D01*
X77421880Y-63140983D01*
X77741619Y-62662458D01*
X77853897Y-62098000D01*
X77758021Y-61616000D01*
X77798000Y-61616000D01*
X77855886Y-61604486D01*
X77914862Y-61606840D01*
X77998058Y-61576206D01*
X78085013Y-61558910D01*
X78134089Y-61526118D01*
X78189474Y-61505725D01*
X78859473Y-61095725D01*
X78924612Y-61035587D01*
X78998330Y-60986330D01*
X79031120Y-60937256D01*
X79074487Y-60897219D01*
X79111654Y-60816729D01*
X79160910Y-60743013D01*
X79172425Y-60685123D01*
X79197167Y-60631541D01*
X79200703Y-60542957D01*
X79218000Y-60456000D01*
X79218000Y-49096000D01*
X79212089Y-49066282D01*
X79215611Y-49036191D01*
X79183724Y-48923683D01*
X79160910Y-48808987D01*
X79144078Y-48783796D01*
X79135816Y-48754645D01*
X79063297Y-48662899D01*
X78998330Y-48565670D01*
X78973138Y-48548837D01*
X78954350Y-48525068D01*
X77874350Y-47605068D01*
X77772250Y-47548062D01*
X77693052Y-47495144D01*
X77741619Y-47422458D01*
X77853897Y-46858000D01*
X77741619Y-46293542D01*
X77421880Y-45815017D01*
X77082124Y-45588000D01*
X77421880Y-45360983D01*
X77741619Y-44882458D01*
X77853897Y-44318000D01*
X77741619Y-43753542D01*
X77421880Y-43275017D01*
X77082124Y-43048000D01*
X77421880Y-42820983D01*
X77741619Y-42342458D01*
X77853897Y-41778000D01*
X77741619Y-41213542D01*
X77421880Y-40735017D01*
X77082124Y-40508000D01*
X77421880Y-40280983D01*
X77534122Y-40113000D01*
X78005070Y-40113000D01*
X78404784Y-40117517D01*
X78533199Y-40170839D01*
X78901187Y-40171160D01*
X79241286Y-40030634D01*
X79501720Y-39770655D01*
X79598000Y-39538786D01*
X79598000Y-94576000D01*
X57998000Y-94576000D01*
X57998000Y-94111584D01*
X62347010Y-94111584D01*
X62523858Y-94344617D01*
X63309438Y-94416763D01*
X63672142Y-94344617D01*
X63848990Y-94111584D01*
X74347010Y-94111584D01*
X74523858Y-94344617D01*
X75309438Y-94416763D01*
X75672142Y-94344617D01*
X75848990Y-94111584D01*
X75098000Y-93360594D01*
X74347010Y-94111584D01*
X63848990Y-94111584D01*
X63098000Y-93360594D01*
X62347010Y-94111584D01*
X57998000Y-94111584D01*
X57998000Y-92617438D01*
X61087237Y-92617438D01*
X61159383Y-92980142D01*
X61392416Y-93156990D01*
X62143406Y-92406000D01*
X64052594Y-92406000D01*
X64803584Y-93156990D01*
X65036617Y-92980142D01*
X65069926Y-92617438D01*
X73087237Y-92617438D01*
X73159383Y-92980142D01*
X73392416Y-93156990D01*
X74143406Y-92406000D01*
X76052594Y-92406000D01*
X76803584Y-93156990D01*
X77036617Y-92980142D01*
X77108763Y-92194562D01*
X77036617Y-91831858D01*
X76803584Y-91655010D01*
X76052594Y-92406000D01*
X74143406Y-92406000D01*
X73392416Y-91655010D01*
X73159383Y-91831858D01*
X73087237Y-92617438D01*
X65069926Y-92617438D01*
X65108763Y-92194562D01*
X65036617Y-91831858D01*
X64803584Y-91655010D01*
X64052594Y-92406000D01*
X62143406Y-92406000D01*
X61392416Y-91655010D01*
X61159383Y-91831858D01*
X61087237Y-92617438D01*
X57998000Y-92617438D01*
X57998000Y-90700416D01*
X62347010Y-90700416D01*
X63098000Y-91451406D01*
X63848990Y-90700416D01*
X63672142Y-90467383D01*
X62886562Y-90395237D01*
X62523858Y-90467383D01*
X62347010Y-90700416D01*
X57998000Y-90700416D01*
X57998000Y-87980285D01*
X66442760Y-87980285D01*
X66653169Y-88489515D01*
X66869313Y-88706036D01*
X66654539Y-88920436D01*
X66443241Y-89429298D01*
X66442760Y-89980285D01*
X66653169Y-90489515D01*
X67042436Y-90879461D01*
X67551298Y-91090759D01*
X68102285Y-91091240D01*
X68611515Y-90880831D01*
X68666758Y-90825684D01*
X69785717Y-90825684D01*
X69871036Y-91036507D01*
X70418028Y-91125408D01*
X70864964Y-91036507D01*
X70950283Y-90825684D01*
X70825015Y-90700416D01*
X74347010Y-90700416D01*
X75098000Y-91451406D01*
X75848990Y-90700416D01*
X75672142Y-90467383D01*
X74886562Y-90395237D01*
X74523858Y-90467383D01*
X74347010Y-90700416D01*
X70825015Y-90700416D01*
X70368000Y-90243401D01*
X69785717Y-90825684D01*
X68666758Y-90825684D01*
X69001461Y-90491564D01*
X69109241Y-90232000D01*
X69248316Y-90288283D01*
X69830599Y-89706000D01*
X70905401Y-89706000D01*
X71487684Y-90288283D01*
X71698507Y-90202964D01*
X71787408Y-89655972D01*
X71698507Y-89209036D01*
X71487684Y-89123717D01*
X70905401Y-89706000D01*
X69830599Y-89706000D01*
X69248316Y-89123717D01*
X69109235Y-89180002D01*
X69002831Y-88922485D01*
X68786687Y-88705964D01*
X69001461Y-88491564D01*
X69097976Y-88259130D01*
X69193169Y-88489515D01*
X69582436Y-88879461D01*
X70091298Y-89090759D01*
X70290334Y-89090933D01*
X70368000Y-89168599D01*
X70445531Y-89091068D01*
X70642285Y-89091240D01*
X71151515Y-88880831D01*
X71541461Y-88491564D01*
X71752759Y-87982702D01*
X71753240Y-87431715D01*
X71542831Y-86922485D01*
X71153564Y-86532539D01*
X70644702Y-86321241D01*
X70093715Y-86320760D01*
X69584485Y-86531169D01*
X69194539Y-86920436D01*
X69098024Y-87152870D01*
X69002831Y-86922485D01*
X68613564Y-86532539D01*
X68104702Y-86321241D01*
X67553715Y-86320760D01*
X67044485Y-86531169D01*
X66654539Y-86920436D01*
X66443241Y-87429298D01*
X66442760Y-87980285D01*
X57998000Y-87980285D01*
X57998000Y-85879187D01*
X73292840Y-85879187D01*
X73433366Y-86219286D01*
X73693345Y-86479720D01*
X74033199Y-86620839D01*
X74401187Y-86621160D01*
X74741286Y-86480634D01*
X75001720Y-86220655D01*
X75052093Y-86099344D01*
X75479367Y-85672070D01*
X78201001Y-85680098D01*
X78323199Y-85730839D01*
X78691187Y-85731160D01*
X79031286Y-85590634D01*
X79291720Y-85330655D01*
X79432839Y-84990801D01*
X79433160Y-84622813D01*
X79292634Y-84282714D01*
X79032655Y-84022280D01*
X78692801Y-83881161D01*
X78324813Y-83880840D01*
X78205584Y-83930104D01*
X75120581Y-83921004D01*
X75119288Y-83921257D01*
X75118000Y-83921001D01*
X74951920Y-83954036D01*
X74785538Y-83986621D01*
X74784443Y-83987348D01*
X74783152Y-83987605D01*
X74642104Y-84081850D01*
X74501110Y-84175460D01*
X74500377Y-84176549D01*
X74499281Y-84177282D01*
X73814828Y-84861736D01*
X73694714Y-84911366D01*
X73434280Y-85171345D01*
X73293161Y-85511199D01*
X73292840Y-85879187D01*
X57998000Y-85879187D01*
X57998000Y-85224609D01*
X63376498Y-85224609D01*
X63499021Y-85444727D01*
X64143440Y-85526985D01*
X64556979Y-85444727D01*
X64679502Y-85224609D01*
X69876498Y-85224609D01*
X69999021Y-85444727D01*
X70643440Y-85526985D01*
X71056979Y-85444727D01*
X71179502Y-85224609D01*
X70528000Y-84573107D01*
X69876498Y-85224609D01*
X64679502Y-85224609D01*
X64028000Y-84573107D01*
X63376498Y-85224609D01*
X57998000Y-85224609D01*
X57998000Y-83981440D01*
X62367015Y-83981440D01*
X62449273Y-84394979D01*
X62669391Y-84517502D01*
X63320893Y-83866000D01*
X64735107Y-83866000D01*
X65386609Y-84517502D01*
X65606727Y-84394979D01*
X65659513Y-83981440D01*
X68867015Y-83981440D01*
X68949273Y-84394979D01*
X69169391Y-84517502D01*
X69820893Y-83866000D01*
X71235107Y-83866000D01*
X71886609Y-84517502D01*
X72106727Y-84394979D01*
X72188985Y-83750560D01*
X72106727Y-83337021D01*
X71886609Y-83214498D01*
X71235107Y-83866000D01*
X69820893Y-83866000D01*
X69169391Y-83214498D01*
X68949273Y-83337021D01*
X68867015Y-83981440D01*
X65659513Y-83981440D01*
X65688985Y-83750560D01*
X65606727Y-83337021D01*
X65386609Y-83214498D01*
X64735107Y-83866000D01*
X63320893Y-83866000D01*
X62669391Y-83214498D01*
X62449273Y-83337021D01*
X62367015Y-83981440D01*
X57998000Y-83981440D01*
X57998000Y-83060029D01*
X59773180Y-83060029D01*
X60005246Y-83407396D01*
X60467966Y-83754854D01*
X60685000Y-83680581D01*
X60685000Y-82843000D01*
X61535000Y-82843000D01*
X61535000Y-83680581D01*
X61752034Y-83754854D01*
X62214754Y-83407396D01*
X62446820Y-83060029D01*
X62364726Y-82843000D01*
X61535000Y-82843000D01*
X60685000Y-82843000D01*
X59855274Y-82843000D01*
X59773180Y-83060029D01*
X57998000Y-83060029D01*
X57998000Y-82507391D01*
X63376498Y-82507391D01*
X64028000Y-83158893D01*
X64679502Y-82507391D01*
X69876498Y-82507391D01*
X70528000Y-83158893D01*
X71179502Y-82507391D01*
X71056979Y-82287273D01*
X70412560Y-82205015D01*
X69999021Y-82287273D01*
X69876498Y-82507391D01*
X64679502Y-82507391D01*
X64556979Y-82287273D01*
X63912560Y-82205015D01*
X63499021Y-82287273D01*
X63376498Y-82507391D01*
X57998000Y-82507391D01*
X57998000Y-80520029D01*
X59773180Y-80520029D01*
X60005246Y-80867396D01*
X60378935Y-81148000D01*
X60005246Y-81428604D01*
X59773180Y-81775971D01*
X59855274Y-81993000D01*
X60685000Y-81993000D01*
X60685000Y-81155419D01*
X60663321Y-81148000D01*
X60685000Y-81140581D01*
X60685000Y-80303000D01*
X59855274Y-80303000D01*
X59773180Y-80520029D01*
X57998000Y-80520029D01*
X57998000Y-47939187D01*
X58822840Y-47939187D01*
X58963366Y-48279286D01*
X59223345Y-48539720D01*
X59563199Y-48680839D01*
X59659237Y-48680923D01*
X59760987Y-48748910D01*
X59773294Y-48751358D01*
X59718381Y-48833542D01*
X59606103Y-49398000D01*
X59683451Y-49786854D01*
X59454714Y-49881366D01*
X59194280Y-50141345D01*
X59053161Y-50481199D01*
X59052840Y-50849187D01*
X59193366Y-51189286D01*
X59453345Y-51449720D01*
X59684164Y-51545564D01*
X59606103Y-51938000D01*
X59678658Y-52302758D01*
X59524714Y-52366366D01*
X59264280Y-52626345D01*
X59123161Y-52966199D01*
X59122840Y-53334187D01*
X59263366Y-53674286D01*
X59523345Y-53934720D01*
X59699610Y-54007911D01*
X59606103Y-54478000D01*
X59718381Y-55042458D01*
X60038120Y-55520983D01*
X60377876Y-55748000D01*
X60038120Y-55975017D01*
X59718381Y-56453542D01*
X59606103Y-57018000D01*
X59718381Y-57582458D01*
X60038120Y-58060983D01*
X60377876Y-58288000D01*
X60038120Y-58515017D01*
X59718381Y-58993542D01*
X59606103Y-59558000D01*
X59718381Y-60122458D01*
X60038120Y-60600983D01*
X60377876Y-60828000D01*
X60038120Y-61055017D01*
X59718381Y-61533542D01*
X59606103Y-62098000D01*
X59718381Y-62662458D01*
X60038120Y-63140983D01*
X60377876Y-63368000D01*
X60038120Y-63595017D01*
X59718381Y-64073542D01*
X59606103Y-64638000D01*
X59718381Y-65202458D01*
X60038120Y-65680983D01*
X60377876Y-65908000D01*
X60038120Y-66135017D01*
X59718381Y-66613542D01*
X59606103Y-67178000D01*
X59718381Y-67742458D01*
X60038120Y-68220983D01*
X60377876Y-68448000D01*
X60038120Y-68675017D01*
X59718381Y-69153542D01*
X59606103Y-69718000D01*
X59718381Y-70282458D01*
X60038120Y-70760983D01*
X60377876Y-70988000D01*
X60038120Y-71215017D01*
X59718381Y-71693542D01*
X59606103Y-72258000D01*
X59718381Y-72822458D01*
X60038120Y-73300983D01*
X60377876Y-73528000D01*
X60038120Y-73755017D01*
X59718381Y-74233542D01*
X59606103Y-74798000D01*
X59718381Y-75362458D01*
X60038120Y-75840983D01*
X60377876Y-76068000D01*
X60038120Y-76295017D01*
X59718381Y-76773542D01*
X59606103Y-77338000D01*
X59718381Y-77902458D01*
X60038120Y-78380983D01*
X60059098Y-78395000D01*
X59734998Y-78395000D01*
X59734998Y-79028000D01*
X59912120Y-79028000D01*
X59773180Y-79235971D01*
X59855274Y-79453000D01*
X60685000Y-79453000D01*
X60685000Y-79028000D01*
X61535000Y-79028000D01*
X61535000Y-79453000D01*
X61960000Y-79453000D01*
X61960000Y-80303000D01*
X61535000Y-80303000D01*
X61535000Y-81140581D01*
X61556679Y-81148000D01*
X61535000Y-81155419D01*
X61535000Y-81993000D01*
X62364726Y-81993000D01*
X62446820Y-81775971D01*
X62214754Y-81428604D01*
X61980899Y-81253002D01*
X62593000Y-81253002D01*
X62593000Y-80148332D01*
X62649588Y-80285286D01*
X63106309Y-80742805D01*
X63703349Y-80990718D01*
X64349814Y-80991282D01*
X64947286Y-80744412D01*
X65404805Y-80287691D01*
X65412878Y-80268249D01*
X65443199Y-80280839D01*
X65811187Y-80281160D01*
X66151286Y-80140634D01*
X66411720Y-79880655D01*
X66552839Y-79540801D01*
X66553160Y-79172813D01*
X66412634Y-78832714D01*
X66152655Y-78572280D01*
X65812801Y-78431161D01*
X65444813Y-78430840D01*
X65406407Y-78446709D01*
X64949691Y-77989195D01*
X64352651Y-77741282D01*
X63706186Y-77740718D01*
X63478000Y-77835002D01*
X63478000Y-75906000D01*
X63420910Y-75618987D01*
X63347544Y-75509187D01*
X66682840Y-75509187D01*
X66733000Y-75630584D01*
X66733000Y-77626000D01*
X66773770Y-77830965D01*
X66799605Y-77960848D01*
X66857739Y-78047852D01*
X66953366Y-78279286D01*
X67208602Y-78534968D01*
X67144714Y-78561366D01*
X66884280Y-78821345D01*
X66743161Y-79161199D01*
X66742840Y-79529187D01*
X66883366Y-79869286D01*
X67143345Y-80129720D01*
X67483199Y-80270839D01*
X67851187Y-80271160D01*
X67878652Y-80259812D01*
X69135380Y-80250899D01*
X69149588Y-80285286D01*
X69606309Y-80742805D01*
X70203349Y-80990718D01*
X70849814Y-80991282D01*
X71447286Y-80744412D01*
X71904805Y-80287691D01*
X72152718Y-79690651D01*
X72153282Y-79044186D01*
X71906412Y-78446714D01*
X71449691Y-77989195D01*
X70852651Y-77741282D01*
X70206186Y-77740718D01*
X69608714Y-77987588D01*
X69151195Y-78444309D01*
X69127692Y-78500909D01*
X68295165Y-78506814D01*
X68521720Y-78280655D01*
X68662839Y-77940801D01*
X68663160Y-77572813D01*
X68522634Y-77232714D01*
X68483000Y-77193011D01*
X68483000Y-75630827D01*
X68532839Y-75510801D01*
X68533160Y-75142813D01*
X68392634Y-74802714D01*
X68132655Y-74542280D01*
X67792801Y-74401161D01*
X67424813Y-74400840D01*
X67084714Y-74541366D01*
X66824280Y-74801345D01*
X66683161Y-75141199D01*
X66682840Y-75509187D01*
X63347544Y-75509187D01*
X63258330Y-75375670D01*
X62597319Y-74714659D01*
X62501619Y-74233542D01*
X62181880Y-73755017D01*
X61842124Y-73528000D01*
X62181880Y-73300983D01*
X62501619Y-72822458D01*
X62613897Y-72258000D01*
X62501619Y-71693542D01*
X62181880Y-71215017D01*
X61842124Y-70988000D01*
X62181880Y-70760983D01*
X62501619Y-70282458D01*
X62613897Y-69718000D01*
X62501619Y-69153542D01*
X62181880Y-68675017D01*
X61842124Y-68448000D01*
X62181880Y-68220983D01*
X62501619Y-67742458D01*
X62613897Y-67178000D01*
X62501619Y-66613542D01*
X62181880Y-66135017D01*
X61842124Y-65908000D01*
X62181880Y-65680983D01*
X62501619Y-65202458D01*
X62613897Y-64638000D01*
X62501619Y-64073542D01*
X62181880Y-63595017D01*
X61842124Y-63368000D01*
X62181880Y-63140983D01*
X62501619Y-62662458D01*
X62613897Y-62098000D01*
X62501619Y-61533542D01*
X62181880Y-61055017D01*
X61842124Y-60828000D01*
X62181880Y-60600983D01*
X62501619Y-60122458D01*
X62613897Y-59558000D01*
X62501619Y-58993542D01*
X62181880Y-58515017D01*
X61842124Y-58288000D01*
X62181880Y-58060983D01*
X62501619Y-57582458D01*
X62613897Y-57018000D01*
X62501619Y-56453542D01*
X62181880Y-55975017D01*
X61842124Y-55748000D01*
X62181880Y-55520983D01*
X62501619Y-55042458D01*
X62613897Y-54478000D01*
X62501619Y-53913542D01*
X62493239Y-53901000D01*
X63452340Y-53901000D01*
X63502882Y-53951542D01*
X63502840Y-53999187D01*
X63613183Y-54266236D01*
X63503161Y-54531199D01*
X63502840Y-54899187D01*
X63643366Y-55239286D01*
X63903345Y-55499720D01*
X64243199Y-55640839D01*
X64611187Y-55641160D01*
X64951286Y-55500634D01*
X65146134Y-55306127D01*
X65974410Y-55129509D01*
X66037569Y-55102325D01*
X66105013Y-55088910D01*
X66170673Y-55045037D01*
X66243206Y-55013819D01*
X66291157Y-54964532D01*
X66348330Y-54926330D01*
X67808660Y-53466000D01*
X68108000Y-53466000D01*
X68395013Y-53408910D01*
X68638330Y-53246330D01*
X68713542Y-53171118D01*
X68761187Y-53171160D01*
X69101286Y-53030634D01*
X69361720Y-52770655D01*
X69502839Y-52430801D01*
X69503160Y-52062813D01*
X69362634Y-51722714D01*
X69102655Y-51462280D01*
X68762801Y-51321161D01*
X68541013Y-51320968D01*
X68352655Y-51132280D01*
X68309559Y-51114385D01*
X68291765Y-51071061D01*
X68291133Y-51070109D01*
X68290910Y-51068987D01*
X68210234Y-50948248D01*
X68129914Y-50827258D01*
X68128964Y-50826619D01*
X68128330Y-50825670D01*
X68007521Y-50744947D01*
X67887083Y-50663952D01*
X67885965Y-50663726D01*
X67885013Y-50663090D01*
X67742524Y-50634747D01*
X67600243Y-50606003D01*
X67599120Y-50606223D01*
X67598000Y-50606000D01*
X65688660Y-50606000D01*
X64560523Y-49477863D01*
X64530910Y-49328987D01*
X64368330Y-49085670D01*
X62808330Y-47525670D01*
X62565013Y-47363090D01*
X62515391Y-47353220D01*
X62613897Y-46858000D01*
X62501619Y-46293542D01*
X62181880Y-45815017D01*
X61842124Y-45588000D01*
X62181880Y-45360983D01*
X62501619Y-44882458D01*
X62613897Y-44318000D01*
X62501619Y-43753542D01*
X62181880Y-43275017D01*
X61842124Y-43048000D01*
X62181880Y-42820983D01*
X62501619Y-42342458D01*
X62613897Y-41778000D01*
X62501619Y-41213542D01*
X62181880Y-40735017D01*
X61842124Y-40508000D01*
X62181880Y-40280983D01*
X62501619Y-39802458D01*
X62613897Y-39238000D01*
X62501619Y-38673542D01*
X62181880Y-38195017D01*
X61842124Y-37968000D01*
X62181880Y-37740983D01*
X62501619Y-37262458D01*
X62613897Y-36698000D01*
X62501619Y-36133542D01*
X62181880Y-35655017D01*
X62121714Y-35614815D01*
X62191611Y-35601663D01*
X62404332Y-35464781D01*
X62547038Y-35255924D01*
X62597244Y-35008000D01*
X62597244Y-34449434D01*
X63737946Y-34449434D01*
X64085404Y-34912154D01*
X64432771Y-35144220D01*
X64649800Y-35062126D01*
X64649800Y-34232400D01*
X63812219Y-34232400D01*
X63737946Y-34449434D01*
X62597244Y-34449434D01*
X62597244Y-33308000D01*
X62570406Y-33165366D01*
X63737946Y-33165366D01*
X63812219Y-33382400D01*
X64649800Y-33382400D01*
X64649800Y-32552674D01*
X65499800Y-32552674D01*
X65499800Y-33382400D01*
X65924800Y-33382400D01*
X65924800Y-34232400D01*
X65499800Y-34232400D01*
X65499800Y-35062126D01*
X65716829Y-35144220D01*
X65924800Y-35005280D01*
X65924800Y-35182402D01*
X66557800Y-35182402D01*
X66557800Y-34858302D01*
X66571817Y-34879280D01*
X67050342Y-35199019D01*
X67614800Y-35311297D01*
X68179258Y-35199019D01*
X68657783Y-34879280D01*
X68884800Y-34539524D01*
X69111817Y-34879280D01*
X69590342Y-35199019D01*
X70154800Y-35311297D01*
X70719258Y-35199019D01*
X71197783Y-34879280D01*
X71237985Y-34819114D01*
X71251137Y-34889011D01*
X71388019Y-35101732D01*
X71596876Y-35244438D01*
X71844800Y-35294644D01*
X73544800Y-35294644D01*
X73776411Y-35251063D01*
X73989132Y-35114181D01*
X74131838Y-34905324D01*
X74182044Y-34657400D01*
X74182044Y-32957400D01*
X74138463Y-32725789D01*
X74001581Y-32513068D01*
X73792724Y-32370362D01*
X73544800Y-32320156D01*
X71844800Y-32320156D01*
X71613189Y-32363737D01*
X71400468Y-32500619D01*
X71257762Y-32709476D01*
X71239765Y-32798350D01*
X71197783Y-32735520D01*
X70719258Y-32415781D01*
X70154800Y-32303503D01*
X69590342Y-32415781D01*
X69111817Y-32735520D01*
X68884800Y-33075276D01*
X68657783Y-32735520D01*
X68179258Y-32415781D01*
X67614800Y-32303503D01*
X67050342Y-32415781D01*
X66571817Y-32735520D01*
X66557800Y-32756498D01*
X66557800Y-32432398D01*
X65924800Y-32432398D01*
X65924800Y-32609520D01*
X65716829Y-32470580D01*
X65499800Y-32552674D01*
X64649800Y-32552674D01*
X64432771Y-32470580D01*
X64085404Y-32702646D01*
X63737946Y-33165366D01*
X62570406Y-33165366D01*
X62553663Y-33076389D01*
X62416781Y-32863668D01*
X62207924Y-32720962D01*
X61960000Y-32670756D01*
X60260000Y-32670756D01*
X60028389Y-32714337D01*
X59815668Y-32851219D01*
X59672962Y-33060076D01*
X59622756Y-33308000D01*
X59622756Y-35008000D01*
X59666337Y-35239611D01*
X59803219Y-35452332D01*
X60012076Y-35595038D01*
X60100950Y-35613035D01*
X60038120Y-35655017D01*
X59718381Y-36133542D01*
X59606103Y-36698000D01*
X59718381Y-37262458D01*
X60038120Y-37740983D01*
X60377876Y-37968000D01*
X60038120Y-38195017D01*
X59718381Y-38673542D01*
X59606103Y-39238000D01*
X59718381Y-39802458D01*
X60038120Y-40280983D01*
X60377876Y-40508000D01*
X60038120Y-40735017D01*
X59718381Y-41213542D01*
X59606103Y-41778000D01*
X59718381Y-42342458D01*
X60038120Y-42820983D01*
X60377876Y-43048000D01*
X60038120Y-43275017D01*
X59718381Y-43753542D01*
X59606103Y-44318000D01*
X59718381Y-44882458D01*
X60038120Y-45360983D01*
X60377876Y-45588000D01*
X60038120Y-45815017D01*
X59718381Y-46293542D01*
X59611497Y-46830881D01*
X59564813Y-46830840D01*
X59224714Y-46971366D01*
X58964280Y-47231345D01*
X58823161Y-47571199D01*
X58822840Y-47939187D01*
X57998000Y-47939187D01*
X57998000Y-29976000D01*
X79598000Y-29976000D01*
X79598000Y-38953517D01*
G36*
X77718000Y-56418194D02*
X77421880Y-55975017D01*
X77082124Y-55748000D01*
X77421880Y-55520983D01*
X77718000Y-55077806D01*
X77718000Y-56418194D01*
X77718000Y-56418194D01*
G37*
X77718000Y-56418194D02*
X77421880Y-55975017D01*
X77082124Y-55748000D01*
X77421880Y-55520983D01*
X77718000Y-55077806D01*
X77718000Y-56418194D01*
M02*
